<svg xmlns="http://www.w3.org/2000/svg" version="1.1" xmlns:xlink="http://www.w3.org/1999/xlink" xmlns:svgjs="http://svgjs.com/svgjs" width="512" height="512" x="0" y="0" viewBox="0 0 510 510" style="enable-background:new 0 0 512 512" xml:space="preserve" class=""><circle r="255" cx="255" cy="255" fill="#3d536c" shape="circle" transform="matrix(0.65,0,0,0.65,89.25,89.25)"></circle><g transform="matrix(0.8800000000000001,0,0,0.8800000000000001,30.599999999999937,30.600000000000165)">
<g>
	<g id="account-circle">
		<path d="M255,0C114.75,0,0,114.75,0,255s114.75,255,255,255s255-114.75,255-255S395.25,0,255,0z M255,76.5
			c43.35,0,76.5,33.15,76.5,76.5s-33.15,76.5-76.5,76.5c-43.35,0-76.5-33.15-76.5-76.5S211.65,76.5,255,76.5z M255,438.6
			c-63.75,0-119.85-33.149-153-81.6c0-51,102-79.05,153-79.05S408,306,408,357C374.85,405.45,318.75,438.6,255,438.6z" fill="#6686a9" data-original="#000000" class=""></path>
	</g>
</g>
</g>
</svg>