<svg version="1.1" id="Layer_1" xmlns="http://www.w3.org/2000/svg" xmlns:xlink="http://www.w3.org/1999/xlink" x="0" y="0" viewBox="0 0 90.4 56" xml:space="preserve"><style>.st1{fill:#fff}.st2{fill:#bf0a30}.st6{fill:#fc0}</style><defs><path id="SVGID_1_" d="M62.4 0c15.5 0 28 12.5 28 28s-12.5 28-28 28-28-12.5-28-28 12.5-28 28-28z"/></defs><clipPath id="SVGID_2_"><use xlink:href="#SVGID_1_" overflow="visible"/></clipPath><g clip-path="url(#SVGID_2_)"><circle cx="62.8" cy="28.3" r="30.6"/><path class="st1" d="M33.4 35.3h58.7c.4-1.5.6-3.1.7-4.6H32.7c.1 1.5.3 3.1.7 4.6zM37.3 44.6h50.9c.9-1.5 1.8-3 2.4-4.6H34.9c.7 1.6 1.5 3.1 2.4 4.6zM46.7 53.9h32.2c2.1-1.3 4-2.9 5.7-4.6H41c1.7 1.7 3.6 3.2 5.7 4.6zM78.8 2.8H46.7c-2.1 1.3-4 2.9-5.7 4.6h43.5c-1.7-1.8-3.6-3.3-5.7-4.6z"/><path class="st2" d="M34.9 39.9h55.8c.6-1.5 1.1-3 1.5-4.6H33.4c.4 1.6.9 3.1 1.5 4.6zM41 49.2h43.5c1.4-1.4 2.6-3 3.7-4.6H37.3c1.1 1.6 2.3 3.2 3.7 4.6zM62.8 58.5c5.9 0 11.4-1.7 16.1-4.6H46.7c4.6 2.9 10.1 4.6 16.1 4.6zM33.4 21.3h58.7c-.4-1.6-.9-3.2-1.5-4.6H34.9c-.6 1.5-1.1 3-1.5 4.6zM32.6 28.3c0 .8 0 1.6.1 2.3h60.2c.1-.8.1-1.5.1-2.3 0-.8 0-1.6-.1-2.3H32.7c-.1.8-.1 1.5-.1 2.3zM41 7.4c-1.4 1.4-2.6 3-3.7 4.6h50.9c-1.1-1.7-2.3-3.2-3.7-4.6H41zM62.8-1.9c-5.9 0-11.4 1.7-16.1 4.6h32.2C74.2-.2 68.7-1.9 62.8-1.9z"/><path class="st1" d="M32.7 26h60.2c-.1-1.6-.4-3.1-.7-4.6H33.4c-.4 1.5-.6 3-.7 4.6zM34.9 16.7h55.8c-.7-1.6-1.5-3.2-2.4-4.6h-51c-.9 1.4-1.7 3-2.4 4.6z"/><g><path d="M62.7-1.9C46-1.9 32.5 11.6 32.5 28.3c0 .8 0 1.6.1 2.4h30.1V-1.9z" fill="#002868"/><path class="st1" d="M34.4 17.9c0 .1-.1.2-.1.3l.1-.3zM34.1 18.9c-.1.3-.2.6-.3 1l.3-1zM35.5 28.9l-.9-.6-.9.6.4-1-.9-.7h1.1l.3-1 .4 1h1.1l-.9.7zM39.6 24.4l-.9-.7-.9.7.3-1.1-.9-.6h1.1l.4-1 .3 1h1.1l-.9.6zM39.3 14.1l.4 1.1-.9-.7-.9.7.3-1.1-.9-.6h1.1l.4-1 .3 1h1.1zM43.8 28.9l-.9-.6-.9.6.3-1-.9-.7h1.2l.3-1 .3 1h1.1l-.9.7zM43.8 18.6l-.4.3.4 1-.9-.6-.9.6.3-1-.4-.3-.5-.4h1.2l.3-1 .3 1h1.1zM43.4 9.5l.4 1-.9-.6-.9.6.3-1-.9-.7h1.2l.3-1 .3 1h1.1zM47.8 24.7l-.9-.6-.9.6.4-1-.9-.7h1.1l.3-1 .4 1h1.1l-.9.7zM47.6 14.5l.3 1-.9-.6-.9.6.4-1-.9-.7h1.1l.3-1 .4 1h1.1zM47.7 5.2l.3 1-.9-.6-.9.6.3-1-.8-.7h1.1l.3-1 .3 1h1.1zM52 28.9l-.9-.6-.8.6.3-1-.9-.7h1.1l.3-1 .4 1h1.1l-.9.7zM52.1 18.6l-.4.3.3 1-.9-.6-.8.6.3-1-.4-.3-.5-.4h1.1l.3-1 .4 1h1.1zM51.7 9.5l.3 1-.9-.6-.8.6.3-1-.9-.7h1.1l.3-1 .4 1h1.1zM56.1 24.7l-.9-.6-.9.6.3-1-.9-.7h1.2l.3-1 .3 1h1.1l-.9.7zM55.8 14.5l.4 1-.9-.6-.9.6.3-1-.9-.7h1.1l.4-1 .3 1h1.1zM55.9 5.2l.4 1-.9-.6-.9.6.3-1-.9-.7H55l.4-1 .3 1h1.1zM60.3 28.9l-.9-.6-.9.6.4-1-.9-.7h1.1l.3-1 .3 1h1.1l-.8.7zM60.4 18.6l-.4.3.3 1-.9-.6-.9.6.4-1-.4-.3-.5-.4h1.1l.3-1 .3 1h1.1zM60 9.5l.3 1-.9-.6-.9.6.4-1-.9-.7h1.1l.3-1 .3 1h1.1zM60 .3l.3 1-.9-.6-.9.6.4-1-.9-.7h1.1l.3-1 .3 1h1.1zM51.1.7l.9.6-.3-1 .1-.1c-.5.2-.9.4-1.4.6l-.2.6.9-.7z"/><path class="st1" d="M51.1 7.8l-.3 1h-1.1l.9.7-.3 1 .8-.6.9.6-.3-1 .9-.7h-1.1zM51.1 17.2l-.3 1h-1.1l.5.4.4.3-.3 1 .8-.6.9.6-.3-1 .4-.3.5-.4h-1.1zM51.5 27.2l-.4-1-.3 1h-1.1l.9.7-.3 1 .8-.6.9.6-.3-1 .9-.7zM42.9 7.8l-.3 1h-1.2l.9.7-.3 1 .9-.6.9.6-.4-1 .9-.7h-1.1zM42.9 17.2l-.3 1h-1.2l.5.4.4.3-.3 1 .9-.6.9.6-.4-1 .4-.3.5-.4h-1.1zM43.2 27.2l-.3-1-.3 1h-1.2l.9.7-.3 1 .9-.6.9.6-.4-1 .9-.7zM33.7 19.9c.1 0 .1 0 0 0zM34.6 17.2l-.2.7c.1-.2.2-.4.2-.7z"/><path class="st1" d="M35.5 19.9l-.3-1.1.4-.3.5-.4H35l-.3-1-.3.6-.1.3c-.1.2-.1.4-.2.6l-.3 1v.1l.9-.6.8.8zM35 27.2l-.4-1-.3 1h-1.1l.9.7-.4 1 .9-.6.9.6-.3-1 .9-.7zM55.3 12.8l-.4 1h-1.1l.9.7-.3 1 .9-.6.9.6-.4-1 .9-.7h-1.1zM55.5 23l-.3-1-.3 1h-1.2l.9.7-.3 1 .9-.6.9.6-.4-1 .9-.7zM47 12.8l-.3 1h-1.1l.9.7-.4 1 .9-.6.9.6-.3-1 .9-.7h-1.1zM47.3 23l-.4-1-.3 1h-1.1l.9.7-.4 1 .9-.6.9.6-.3-1 .9-.7zM38.8 12.5l-.4 1h-1.1l.9.6-.3 1.1.9-.7.9.7-.4-1.1.9-.6h-1.1zM39 22.7l-.3-1-.4 1h-1.1l.9.6-.3 1.1.9-.7.9.7-.4-1.1.9-.6zM59.4 7.8l-.3 1H58l.9.7-.4 1 .9-.6.9.6-.3-1 .8-.7h-1.1zM47.1 3.5l-.3 1h-1.1l.8.7-.3 1 .9-.6.9.6-.3-1 .8-.7h-1.1zM55.4 3.5l-.4 1h-1.1l.9.7-.3 1 .9-.6.9.6-.4-1 .9-.7h-1.1zM59.4-1.4l-.3 1H58l.9.7-.4 1 .9-.6.9.6-.3-1 .8-.7h-1.1zM59.4 17.2l-.3 1H58l.5.4.4.3-.4 1 .9-.6.9.6-.3-1 .4-.3.4-.4h-1.1zM59.7 27.2l-.3-1-.3 1H58l.9.7-.4 1 .9-.6.9.6-.3-1 .8-.7z"/></g></g><g><defs><path id="SVGID_3_" d="M31.4 28c0-9.6 4.4-18.2 11.2-23.9C38.4 1.5 33.4 0 28 0 12.5 0 0 12.5 0 28s12.5 28 28 28c5.4 0 10.4-1.5 14.6-4.1-6.8-5.7-11.2-14.3-11.2-23.9z"/></defs><clipPath id="SVGID_4_"><use xlink:href="#SVGID_3_" overflow="visible"/></clipPath><g clip-path="url(#SVGID_4_)"><path d="M56.8 28.3c0 16.1-13.1 29.2-29.2 29.2S-1.6 44.4-1.6 28.3 11.5-.9 27.6-.9c16.1.1 29.2 13.1 29.2 29.2z"/><ellipse transform="rotate(-45.001 27.603 28.316)" cx="27.6" cy="28.3" rx="28.8" ry="28.8" fill="#039"/><path class="st6" d="M27.6 9.1l.6 1.8H30L28.5 12l.6 1.7-1.5-1.1-1.5 1.1.6-1.7-1.5-1.1H27zM19.1 11.4l.6 1.8h1.8l-1.5 1 .6 1.8-1.5-1.1-1.5 1.1.6-1.8-1.5-1h1.8zM12.9 17.7l.5 1.7h1.9l-1.5 1.1.6 1.7-1.5-1.1-1.5 1.1.6-1.7-1.5-1.1h1.8zM36.1 11.4l.6 1.8h1.8L37 14.3l.6 1.7-1.5-1.1-1.5 1.1.6-1.7-1.5-1.1h1.8zM44.4 19.3l-1.4 1 .5 1.8-1.4-1.1-1.5 1.1.5-1.7-1.4-1.1h1.8l.6-1.8.5 1.8zM46.8 27.8l-1.5 1.1.6 1.8-1.5-1.1-1.5 1 .6-1.7-1.5-1.1h1.8l.6-1.7.6 1.7zM43.7 38.9l-1.5-1.1-1.5 1.1.6-1.7-1.5-1.1h1.8l.6-1.8.6 1.8h1.8l-1.5 1.1zM26.3 47.5l.5-1.7-1.4-1.1h1.8l.5-1.8.6 1.8h1.8l-1.4 1 .5 1.8-1.4-1.1zM17.8 45.2l.5-1.7-1.4-1.1h1.8l.5-1.7.6 1.7h1.8l-1.5 1.1.6 1.7-1.5-1zM37.4 45.2L36 44.1l-1.5 1.1.6-1.8-1.5-1h1.8l.6-1.8.5 1.8h1.9l-1.5 1zM8.4 27.9h1.8l.6-1.8.6 1.8h1.8L11.7 29l.6 1.7-1.5-1.1-1.5 1.1.6-1.7zM11.5 38.9l.6-1.8-1.5-1h1.9l.5-1.8.6 1.8h1.8l-1.5 1 .6 1.8-1.5-1.1z"/></g></g></svg>